<?xml version="1.0" standalone="no"?>
<!DOCTYPE svg PUBLIC "-//W3C//DTD SVG 20010904//EN"
 "http://www.w3.org/TR/2001/REC-SVG-20010904/DTD/svg10.dtd">
<svg version="1.0" xmlns="http://www.w3.org/2000/svg"
 width="579.000000pt" height="579.000000pt" viewBox="0 0 579.000000 579.000000"
 preserveAspectRatio="xMidYMid meet">
<metadata>
Created by potrace 1.11, written by Peter Selinger 2001-2013
</metadata>
<g transform="translate(0.000000,579.000000) scale(0.100000,-0.100000)"
fill="#000000" stroke="none">
<path d="M2546 5514 c-23 -23 -20 -48 19 -154 44 -119 54 -138 76 -145 15 -5
39 -52 39 -76 0 -15 -32 -10 -51 7 -11 10 -42 17 -85 19 -38 2 -90 8 -116 13
-61 12 -92 6 -123 -26 -47 -47 -50 -129 -5 -177 l22 -23 -37 -12 c-20 -7 -50
-10 -66 -6 -29 6 -79 -10 -79 -25 0 -5 -18 -18 -40 -29 -22 -11 -40 -18 -40
-16 0 3 -39 -13 -87 -34 -617 -274 -1070 -767 -1288 -1400 l-33 -95 -327 -3
-326 -2 3 -73 3 -72 2890 0 2890 0 1 81 1 80 -308 -1 -309 -1 -16 51 c-83 256
-243 551 -412 760 -151 186 -400 403 -607 528 -86 52 -90 56 -97 97 -10 60
-34 82 -102 96 -30 6 -33 14 -40 92 -9 108 -31 141 -128 187 -40 19 -43 23
-50 73 -14 98 -90 174 -166 167 -15 -2 -56 -6 -92 -10 -36 -3 -78 -7 -95 -10
-30 -3 -201 -15 -285 -20 -53 -2 -80 -10 -136 -37 l-41 -20 -36 37 c-20 21
-39 46 -42 55 -6 18 -50 53 -71 56 -6 1 -42 20 -80 43 -73 44 -103 50 -128 25z
m89 -51 c22 -15 66 -40 97 -55 63 -30 80 -61 58 -102 -13 -25 -77 -66 -102
-66 -25 0 -44 31 -82 133 -46 124 -42 138 29 90z m986 -139 c12 -10 27 -30 34
-44 14 -28 26 -96 19 -103 -3 -3 -28 1 -55 8 -28 8 -85 13 -128 12 -74 -2 -85
-5 -193 -60 -127 -64 -148 -70 -184 -56 -20 7 -25 6 -22 -3 3 -7 19 -17 36
-22 27 -9 31 -13 25 -35 -6 -23 -4 -23 29 10 19 19 79 54 134 79 l99 45 115 0
c89 0 123 -4 149 -18 19 -9 41 -17 50 -18 54 -2 120 -78 122 -140 1 -22 2 -49
2 -61 0 -15 -4 -22 -14 -20 -8 2 -36 10 -64 17 -88 22 -158 11 -267 -45 -53
-27 -117 -54 -142 -61 -25 -6 -43 -15 -40 -20 3 -5 11 -9 17 -8 30 4 38 -2 32
-21 -9 -28 3 -25 28 6 25 32 166 101 231 113 68 13 197 -3 231 -28 6 -5 31
-14 57 -21 26 -7 53 -19 60 -27 12 -14 12 -80 1 -138 -3 -16 -6 -36 -6 -42 0
-7 -3 -13 -6 -14 -99 -14 -178 -36 -256 -73 -38 -18 -81 -37 -95 -44 -24 -10
-23 -11 13 -11 35 -1 38 -3 31 -23 -6 -21 -4 -21 22 6 54 53 164 93 275 100
111 7 124 -6 164 -159 39 -149 25 -178 -158 -312 -69 -51 -97 -63 -97 -44 0 5
-7 11 -16 13 -20 4 7 35 86 98 122 97 156 161 115 216 -13 18 -14 17 -14 -16
0 -43 -3 -59 -18 -85 -11 -18 -12 -17 -11 13 2 52 -9 48 -26 -10 -14 -48 -22
-59 -73 -93 -31 -22 -93 -81 -137 -130 -81 -90 -112 -117 -319 -272 -107 -80
-243 -158 -322 -183 -38 -13 -162 -21 -178 -12 -4 2 -3 9 3 16 16 20 39 106
29 106 -5 0 -59 -75 -119 -167 -139 -215 -128 -202 -177 -205 -37 -2 -56 6
-145 61 -128 79 -361 240 -408 282 -140 124 -180 163 -179 173 0 6 29 36 64
66 35 30 101 90 147 132 59 54 94 79 118 83 19 3 54 15 79 26 24 10 55 17 70
14 16 -3 46 6 81 24 30 15 72 34 93 41 21 6 45 23 54 36 15 24 15 27 -4 52
-16 21 -32 29 -73 35 -30 4 -56 10 -59 12 -12 12 14 19 64 17 41 -2 67 4 103
21 26 14 70 32 98 41 65 21 96 50 92 83 -3 30 -41 61 -82 69 -16 3 -42 12 -57
20 -16 8 -31 14 -34 14 -20 -1 -25 1 -25 9 0 4 34 21 76 35 97 35 118 54 109
95 -7 34 -31 50 -107 71 -26 7 -45 16 -42 21 2 4 11 6 18 3 8 -3 38 -7 68 -8
70 -4 108 14 108 53 0 29 -18 50 -118 144 -29 26 -52 51 -52 55 1 10 172 133
222 159 46 24 80 30 216 38 48 3 107 8 132 10 25 3 76 8 114 10 38 3 71 7 73
9 12 11 96 -3 114 -20z m-763 -36 c7 -7 12 -15 12 -19 0 -13 -138 -101 -149
-95 -21 14 -10 27 38 48 35 14 53 28 61 49 14 32 20 35 38 17z m-318 -165 c30
-2 58 -7 62 -11 5 -5 -3 -23 -17 -42 -16 -22 -25 -47 -25 -72 0 -50 -24 -60
-102 -42 -123 29 -155 56 -145 121 9 53 30 65 107 57 36 -3 90 -8 120 -11z
m252 -117 c43 -39 78 -76 78 -82 0 -7 -38 -10 -117 -8 -104 3 -120 6 -134 23
-37 45 24 160 76 144 11 -3 55 -38 97 -77z m-217 -118 c-9 -5 -30 -6 -48 -2
-18 4 -36 7 -40 6 -5 -2 -6 2 -2 8 4 6 15 8 26 5 10 -4 27 -2 36 4 12 6 22 6
31 -2 11 -9 10 -12 -3 -19z m-328 -12 c52 -20 105 -28 188 -31 99 -3 98 -3 90
-22 -11 -29 -16 -56 -16 -91 -1 -18 -7 -36 -13 -38 -7 -3 -46 4 -87 14 -42 11
-83 16 -94 12 -31 -11 -132 -5 -149 9 -13 11 -13 17 -3 35 6 11 13 37 13 56 3
66 4 70 19 70 8 0 32 -6 52 -14z m473 -60 c57 -19 106 -39 108 -44 1 -5 -17
-17 -40 -27 -24 -10 -71 -30 -105 -46 -59 -26 -104 -30 -111 -11 -1 5 -9 17
-16 27 -24 33 13 135 48 135 6 0 58 -16 116 -34z m-596 -115 c17 -19 15 -21
-70 -60 -48 -23 -88 -41 -90 -41 -2 0 -49 -28 -106 -62 -401 -240 -733 -633
-898 -1063 -57 -148 -51 -139 -100 -143 l-43 -3 7 31 c7 40 77 212 117 293
183 365 500 707 839 906 67 40 163 91 179 96 10 3 45 19 77 35 71 35 67 34 88
11z m389 -55 c34 5 38 4 35 -12 -2 -11 -11 -18 -18 -16 -8 2 -41 3 -72 3 -41
0 -58 4 -58 13 0 21 10 25 43 15 18 -5 49 -7 70 -3z m-163 -36 c0 -5 -8 -10
-17 -10 -15 0 -16 2 -3 10 19 12 20 12 20 0z m487 -77 c2 -6 -18 -19 -44 -28
-26 -10 -70 -28 -98 -41 -79 -37 -98 -35 -124 7 -15 24 -17 38 -10 63 13 47
30 75 48 78 22 5 224 -65 228 -79z m-329 38 c7 -1 12 -16 12 -40 0 -22 4 -51
10 -65 13 -36 1 -40 -110 -41 -52 -1 -114 -7 -137 -14 -54 -17 -97 -8 -85 17
5 9 7 31 5 47 -2 17 -5 41 -6 55 l-2 25 100 1 c55 1 114 6 130 11 17 5 39 9
50 8 11 -2 26 -3 33 -4z m-356 -66 c4 -18 -1 -29 -18 -40 -13 -8 -28 -15 -34
-15 -18 0 -234 -132 -315 -194 -291 -220 -515 -511 -651 -846 -29 -73 -46 -89
-79 -76 -11 4 -6 23 21 92 176 436 488 794 894 1024 67 37 154 78 171 79 4 1
9 -10 11 -24z m2033 -37 c195 -149 364 -310 464 -445 28 -37 55 -73 61 -80 9
-11 70 -107 113 -178 33 -55 124 -249 147 -315 12 -36 27 -73 32 -82 5 -10 5
-18 1 -19 -59 -6 -73 -6 -81 4 -4 7 -23 53 -41 102 -128 344 -382 692 -675
922 -16 13 -33 41 -41 68 -14 45 -12 48 20 23z m-1690 -131 c6 -2 36 -9 67
-16 66 -14 80 -26 40 -36 -15 -3 -55 -20 -89 -37 -34 -17 -69 -28 -77 -25 -24
10 -48 54 -41 76 15 47 39 56 100 38z m-134 -113 c12 -15 -60 -44 -117 -47
-35 -2 -39 0 -40 23 -1 14 -6 36 -13 48 -10 18 -10 26 0 38 6 8 13 13 15 11 2
-2 34 4 71 13 l68 16 3 -45 c2 -25 8 -51 13 -57z m1985 -155 c155 -161 306
-393 393 -604 18 -44 37 -88 42 -97 5 -10 6 -18 2 -19 -5 0 -18 -2 -30 -5 -26
-4 -28 -1 -69 98 -96 234 -241 446 -437 640 l-98 98 17 26 17 25 55 -53 c30
-29 78 -78 108 -109z m-484 -64 c17 -22 16 -24 -12 -64 -28 -38 -31 -40 -60
-30 -48 17 -54 40 -19 80 16 19 29 30 30 24 1 -5 2 -14 4 -20 1 -5 3 -23 3
-38 2 -34 21 -32 39 3 13 27 1 60 -22 60 -8 0 -15 4 -15 9 0 16 34 0 52 -24z
m141 -122 c32 -31 57 -62 57 -69 0 -17 -89 -94 -110 -94 -9 0 -24 8 -34 19 -9
10 -43 29 -76 42 -33 13 -60 29 -60 36 0 7 12 20 28 30 15 9 43 34 63 55 20
21 46 38 56 38 11 0 45 -25 76 -57z m-2066 13 c3 -3 -2 -8 -11 -12 -17 -7 -66
13 -66 27 0 7 68 -5 77 -15z m-105 -13 c17 -16 39 -35 47 -43 92 -86 238 -215
286 -251 70 -54 328 -227 350 -235 39 -16 -3 -19 -219 -18 l-234 1 -74 55
c-40 30 -120 90 -178 133 -58 42 -112 85 -121 94 -9 9 -26 23 -38 31 -28 19
-27 29 14 98 30 51 119 162 131 162 2 0 18 -12 36 -27z m1912 8 c17 -19 16
-21 -29 -67 l-48 -47 -19 39 c-22 47 -18 61 24 79 44 19 52 18 72 -4z m-130
-76 c6 -17 -9 -20 -20 -4 -9 15 -43 -28 -44 -53 0 -24 12 -22 44 7 32 30 35
15 2 -19 -30 -33 -38 -33 -60 5 l-18 31 28 24 c33 27 59 30 68 9z m161 -55 c3
-5 23 -14 44 -20 42 -11 82 -47 65 -58 -6 -4 -23 -26 -38 -49 -14 -24 -30 -43
-34 -43 -4 0 -29 7 -56 15 -26 8 -52 12 -57 9 -5 -3 -9 -1 -9 4 0 4 -16 27
-36 50 -19 23 -31 42 -25 42 5 0 12 8 15 18 8 26 118 53 131 32z m302 -61 c3
-30 6 -61 6 -69 0 -16 164 -263 178 -268 5 -2 9 -8 9 -12 0 -5 -34 -8 -75 -7
l-76 1 -29 48 c-17 27 -30 51 -30 54 0 3 -15 29 -34 58 -35 55 -82 86 -130 86
-14 0 -26 3 -26 6 0 15 57 84 69 84 10 0 7 -8 -9 -24 -29 -32 -22 -48 26 -65
22 -7 54 -27 71 -44 45 -43 53 -26 13 29 l-33 46 26 22 c27 23 41 62 25 72 -5
3 -20 -3 -32 -15 -13 -12 -34 -23 -47 -26 l-24 -4 25 17 c14 9 38 29 55 44 16
14 31 25 33 23 1 -1 5 -27 9 -56z m-574 27 c15 -23 15 -26 -10 -50 -32 -33
-37 -32 -62 2 l-20 29 27 21 c35 27 46 27 65 -2z m116 -87 c30 -28 23 -80 -13
-114 -22 -20 -35 -23 -88 -22 -55 2 -64 5 -77 28 -13 24 -12 27 30 70 24 25
50 48 58 50 36 12 69 8 90 -12z m-1979 -58 c0 -8 -32 -53 -55 -77 -5 -6 -21
-25 -35 -43 -14 -18 -34 -42 -45 -55 -11 -13 -30 -35 -42 -49 -23 -27 -51 -38
-37 -14 5 6 50 65 102 130 86 107 112 132 112 108z m2169 -24 c21 3 23 0 17
-24 -13 -51 -6 -85 26 -129 17 -24 35 -44 40 -44 4 0 8 -4 8 -10 0 -6 -32 -10
-76 -10 -68 0 -79 3 -112 30 -20 16 -63 42 -95 58 l-59 30 34 11 c20 7 48 31
71 61 l38 49 42 -13 c24 -7 53 -11 66 -9z"/>
<path d="M2696 5373 c4 -10 7 -37 6 -60 -2 -53 16 -57 59 -14 33 34 30 55 -12
76 -40 21 -63 20 -53 -2z"/>
<path d="M3570 5304 c1 -28 36 -89 44 -76 10 17 -3 58 -25 78 -18 16 -19 16
-19 -2z"/>
<path d="M3211 5286 c-9 -10 -8 -26 5 -62 9 -27 17 -50 19 -52 1 -1 41 16 89
39 117 55 116 64 -9 74 -44 4 -83 9 -86 11 -4 2 -12 -2 -18 -10z m119 -33 c0
-5 -17 -16 -37 -26 -29 -15 -38 -16 -44 -5 -18 28 -9 38 36 38 25 0 45 -3 45
-7z"/>
<path d="M3530 5278 c0 -9 5 -20 10 -23 13 -8 13 5 0 25 -8 13 -10 13 -10 -2z"/>
<path d="M3058 5253 c-10 -2 -18 -8 -18 -13 0 -4 8 -7 18 -5 9 2 23 4 30 4 6
1 12 6 12 11 0 10 -12 11 -42 3z"/>
<path d="M3090 5220 c-8 -5 -11 -12 -7 -16 4 -4 13 -2 19 4 15 15 7 24 -12 12z"/>
<path d="M2940 5202 c0 -11 38 -114 45 -120 3 -3 10 -1 16 5 13 13 -5 85 -27
108 -16 16 -34 20 -34 7z"/>
<path d="M2903 5119 c4 -13 7 -27 7 -31 0 -5 5 -8 11 -8 15 0 6 53 -10 58 -10
4 -12 -1 -8 -19z"/>
<path d="M3475 5130 c-3 -5 1 -10 9 -10 9 0 16 5 16 10 0 6 -4 10 -9 10 -6 0
-13 -4 -16 -10z"/>
<path d="M3513 5112 c-13 -2 -23 -8 -23 -13 0 -11 69 -9 76 2 5 9 -26 15 -53
11z"/>
<path d="M3732 5072 c1 -4 12 -31 22 -60 21 -54 36 -67 36 -31 0 29 -29 86
-47 93 -8 3 -13 3 -11 -2z"/>
<path d="M3457 5048 c-8 -5 -6 -12 7 -26 20 -24 18 -25 -54 -42 -63 -14 -95
-28 -70 -31 8 -1 18 -1 21 -1 4 1 44 4 90 7 46 3 94 8 107 11 l22 4 -20 22
c-20 22 -26 39 -12 36 14 -3 82 14 82 21 0 9 -158 8 -173 -1z"/>
<path d="M3720 5021 c0 -5 5 -13 10 -16 6 -3 10 -2 10 4 0 5 -4 13 -10 16 -5
3 -10 2 -10 -4z"/>
<path d="M3103 4955 c-19 -15 -17 -17 19 -19 15 -1 24 -10 30 -32 4 -17 17
-39 28 -49 11 -10 25 -36 31 -59 14 -51 29 -30 25 33 -2 29 -10 47 -25 57 -11
8 -21 23 -21 33 0 37 -55 60 -87 36z"/>
<path d="M3110 4875 c0 -14 32 -65 40 -65 15 0 12 23 -6 48 -14 20 -34 30 -34
17z"/>
<path d="M2960 4840 c-8 -5 -11 -12 -7 -16 4 -4 13 -2 19 4 15 15 7 24 -12 12z"/>
<path d="M3075 4831 c-3 -5 -1 -12 5 -16 5 -3 10 1 10 9 0 18 -6 21 -15 7z"/>
<path d="M2970 4785 c-13 -16 -8 -18 27 -9 13 4 20 10 17 15 -8 14 -30 11 -44
-6z"/>
<path d="M3633 4785 c-35 -15 -45 -49 -21 -73 9 -9 4 -12 -26 -12 -21 0 -36
-3 -34 -7 14 -31 52 -83 60 -83 5 0 7 3 4 8 -2 4 2 15 9 25 13 18 14 18 24 -1
25 -47 91 -34 91 18 0 23 5 30 19 30 25 0 36 33 21 60 -14 26 -51 41 -67 28
-9 -7 -17 -5 -28 6 -9 9 -17 16 -18 16 -1 -1 -17 -7 -34 -15z"/>
<path d="M3890 4776 c0 -15 57 -125 63 -120 9 9 -3 65 -20 91 -12 18 -43 39
-43 29z"/>
<path d="M3045 4733 c-84 -18 -215 -66 -215 -78 0 -11 6 -12 23 -6 13 5 41 12
63 15 42 7 136 42 169 63 19 13 19 13 0 12 -11 -1 -29 -3 -40 -6z"/>
<path d="M3857 4733 c-4 -6 2 -22 14 -34 16 -20 18 -20 11 -4 -5 11 -11 27
-14 35 -3 9 -7 10 -11 3z"/>
<path d="M3048 4673 c-10 -3 -18 -11 -18 -19 0 -11 6 -13 23 -8 12 3 24 8 26
10 9 8 -15 20 -31 17z"/>
<path d="M3300 4651 c0 -5 9 -12 19 -16 12 -3 23 -19 27 -38 3 -17 13 -36 20
-42 8 -5 17 -27 19 -49 7 -52 17 -67 26 -36 14 50 10 96 -11 115 -11 10 -20
24 -20 31 0 21 -30 44 -56 44 -13 0 -24 -4 -24 -9z"/>
<path d="M3306 4568 c4 -13 12 -31 19 -41 20 -29 28 -2 10 33 -18 35 -40 41
-29 8z"/>
<path d="M3270 4536 c0 -9 5 -16 10 -16 6 0 10 4 10 9 0 6 -4 13 -10 16 -5 3
-10 -1 -10 -9z"/>
<path d="M3080 4490 c-19 -10 -54 -26 -77 -36 -23 -9 -41 -20 -39 -23 2 -3
-10 -7 -27 -8 -44 -3 -114 -31 -121 -48 -4 -11 0 -11 27 0 18 7 52 14 77 16
25 2 59 11 75 21 17 10 39 18 50 18 11 0 33 7 49 15 16 9 31 13 33 11 3 -2 -5
-23 -17 -46 -11 -22 -22 -62 -22 -88 -3 -75 -70 -156 -218 -263 -34 -24 -71
-52 -83 -62 l-22 -18 25 6 c50 13 184 101 246 162 75 74 91 103 97 169 3 28
12 64 21 82 28 55 17 113 -23 112 -9 -1 -32 -9 -51 -20z"/>
<path d="M4027 4497 c-3 -8 -1 -20 4 -28 6 -10 9 -7 9 14 0 29 -5 35 -13 14z"/>
<path d="M3836 4471 c-3 -4 1 -17 9 -27 8 -10 14 -26 15 -34 0 -8 -9 0 -20 18
-16 27 -26 33 -48 30 -50 -6 -63 -79 -17 -100 16 -7 21 -17 19 -35 -3 -29 31
-67 53 -59 8 3 19 6 23 6 5 0 14 9 20 21 9 16 8 26 -4 44 -18 28 -20 35 -7 35
5 0 14 -13 21 -30 7 -16 16 -30 21 -30 18 0 20 22 4 46 -9 14 -14 28 -12 31 3
2 10 -5 17 -16 6 -12 15 -21 20 -21 14 0 12 37 -1 46 -8 4 -2 12 14 21 17 8
24 19 21 28 -7 17 -20 19 -29 5 -11 -17 -33 -11 -40 11 -8 23 -31 20 -29 -4 1
-9 -2 -14 -7 -11 -5 3 -9 12 -9 20 0 15 -25 19 -34 5z m-26 -60 c7 -14 7 -22
-1 -27 -12 -7 -29 12 -29 34 0 19 18 14 30 -7z m48 -94 c2 -10 -3 -17 -11 -17
-16 0 -30 24 -19 34 10 10 27 1 30 -17z"/>
<path d="M3337 4363 c-3 -5 -8 -24 -12 -43 -4 -19 -16 -54 -27 -78 -10 -24
-21 -61 -23 -83 -6 -52 -8 -55 -69 -89 -52 -30 -80 -55 -126 -117 -36 -49 -20
-48 33 3 26 24 74 60 107 80 71 41 90 66 90 115 0 20 7 54 16 75 22 51 31 171
11 137z"/>
<path d="M3580 4343 c-27 -5 -52 -23 -32 -23 7 0 14 1 15 3 10 7 37 -28 43
-56 3 -18 15 -43 25 -56 11 -13 19 -39 19 -57 0 -35 13 -45 24 -18 13 34 5 75
-29 143 -19 39 -36 70 -38 70 -1 -1 -13 -4 -27 -6z"/>
<path d="M3376 4279 c-10 -32 -13 -69 -5 -69 13 0 27 33 23 53 -4 25 -13 33
-18 16z"/>
<path d="M3560 4231 c0 -15 38 -56 45 -49 9 9 -21 58 -35 58 -6 0 -10 -4 -10
-9z"/>
<path d="M3352 4157 c-9 -11 -10 -17 -2 -22 15 -9 23 -1 18 21 -3 15 -4 16
-16 1z"/>
<path d="M3632 4025 c-23 -13 -62 -37 -85 -54 -161 -112 -331 -199 -414 -211
-73 -10 -80 -14 -86 -50 -8 -43 9 -70 42 -70 89 0 601 339 601 398 0 17 -9 15
-58 -13z"/>
<path d="M3440 4005 c-30 -20 -90 -57 -132 -83 -79 -47 -101 -70 -50 -51 74
28 278 167 247 169 -6 0 -35 -16 -65 -35z"/>
<path d="M2931 3964 c-32 -27 -53 -62 -45 -76 7 -11 86 80 82 93 -2 7 -17 0
-37 -17z"/>
<path d="M2312 3960 c-9 -14 -23 -20 -49 -20 -38 0 -36 -15 2 -22 15 -3 19
-10 17 -33 l-2 -30 16 23 c23 31 46 29 44 -5 -3 -44 0 -50 13 -26 12 21 14 22
35 7 12 -8 22 -21 21 -27 -1 -7 -1 -19 0 -27 1 -12 4 -12 12 3 14 24 46 21 60
-5 12 -22 12 -22 20 -2 5 15 17 21 41 22 29 1 36 -3 45 -26 l11 -27 1 26 c1
20 7 28 27 32 21 4 28 -1 38 -24 14 -32 26 -29 26 7 0 18 7 24 33 27 l32 3
-33 9 c-20 4 -38 18 -47 34 -13 25 -15 24 -19 -6 0 -7 -4 -13 -8 -13 -44 -1
-47 1 -43 20 2 11 0 20 -5 20 -5 0 -12 -9 -15 -20 -4 -13 -15 -20 -31 -20 -36
0 -39 3 -35 30 3 27 -6 23 -23 -11 -6 -12 -19 -23 -29 -25 -16 -2 -18 2 -13
32 8 38 -3 44 -22 13 -11 -16 -16 -18 -28 -9 -8 7 -14 24 -14 39 -1 25 -1 25
-15 7 -20 -27 -49 -14 -41 19 8 30 -4 33 -22 5z"/>
<path d="M2970 3938 c-11 -12 -20 -29 -20 -37 1 -11 8 -8 25 12 38 43 33 66
-5 25z"/>
<path d="M2020 3861 c0 -5 6 -14 14 -18 12 -7 104 -83 130 -108 17 -16 330
-242 420 -302 58 -40 84 -52 100 -47 32 10 81 67 171 204 111 168 98 172 -60
22 -48 -46 -99 -88 -112 -93 -31 -12 -56 -1 -213 91 -69 40 -145 84 -170 98
-25 14 -94 54 -155 90 -60 36 -113 67 -117 69 -5 2 -8 0 -8 -6z"/>
<path d="M2352 5107 c-16 -18 -7 -86 13 -101 22 -16 91 -20 100 -6 4 6 -4 23
-16 37 -13 13 -24 32 -24 41 0 9 -4 23 -8 30 -11 16 -52 16 -65 -1z"/>
<path d="M2652 5045 c-30 -66 -5 -109 61 -103 37 3 43 25 12 42 -11 6 -22 12
-25 14 -2 2 -5 17 -5 35 -1 40 -27 48 -43 12z"/>
<path d="M2206 4844 c-9 -9 -16 -32 -16 -55 0 -36 2 -40 33 -47 35 -7 47 -7
92 1 45 8 66 18 62 31 -2 6 -8 11 -13 11 -46 3 -83 19 -103 45 -25 34 -33 36
-55 14z"/>
<path d="M2602 4822 c-23 -15 -33 -73 -17 -98 15 -24 36 -24 90 -4 26 10 25
40 -1 40 -8 0 -24 16 -35 35 -12 19 -22 35 -22 35 -1 0 -8 -4 -15 -8z"/>
<path d="M2595 4580 c-3 -4 -8 -28 -11 -52 -10 -74 34 -95 104 -51 27 17 17
37 -23 47 -15 4 -27 16 -31 30 -6 26 -30 41 -39 26z"/>
<path d="M2233 4528 c-13 -18 -14 -57 -2 -80 8 -14 17 -18 37 -14 15 3 51 8
80 11 61 6 92 19 92 39 0 9 -17 14 -56 15 -37 1 -68 8 -89 21 -38 23 -49 25
-62 8z"/>
<path d="M2410 4292 c0 -49 43 -68 84 -37 25 19 16 37 -19 41 -16 2 -31 8 -33
14 -8 23 -32 9 -32 -18z"/>
<path d="M2215 4258 c4 -13 8 -34 9 -48 3 -30 -1 -29 59 -6 45 17 55 36 19 36
-9 0 -28 9 -42 20 -35 27 -54 26 -45 -2z"/>
<path d="M3925 3883 c18 -44 24 -77 19 -103 -4 -15 -1 -30 4 -34 26 -16 98 48
86 76 -3 7 -23 28 -46 46 -45 36 -75 43 -63 15z"/>
<path d="M1763 3823 c-15 -27 -30 -50 -34 -53 -3 -3 -16 -24 -28 -48 l-22 -43
53 -50 c72 -68 388 -281 406 -274 19 7 -3 31 -128 138 -52 45 -97 84 -100 87
-3 3 -21 17 -42 32 -71 53 -98 130 -72 205 16 46 17 53 4 53 -5 0 -22 -21 -37
-47z"/>
<path d="M3702 3888 c-6 -7 -13 -25 -17 -39 -8 -34 20 -35 42 -2 14 21 14 26
1 39 -12 12 -17 13 -26 2z"/>
<path d="M3800 3690 c-19 -15 -34 -19 -66 -14 -27 4 -44 2 -49 -6 -11 -18 19
-43 57 -46 18 -2 42 -5 52 -6 20 -3 66 52 66 78 0 20 -31 17 -60 -6z"/>
<path d="M3458 3712 c-31 -4 -33 -9 -14 -35 13 -16 15 -16 37 2 28 23 17 38
-23 33z"/>
<path d="M3561 3628 c-21 -58 -30 -92 -25 -99 17 -28 84 23 84 64 0 22 -27 57
-44 57 -3 0 -10 -10 -15 -22z"/>
<path d="M3718 3552 c-10 -2 -18 -7 -18 -11 0 -4 -16 -24 -36 -44 -40 -40 -38
-51 11 -71 18 -8 48 -28 66 -45 17 -17 34 -31 35 -31 13 0 -1 33 -26 65 -32
40 -28 65 10 65 22 0 44 25 37 44 -6 16 -55 34 -79 28z"/>
<path d="M2483 3012 c-37 -4 -108 -67 -124 -111 -16 -40 -21 -109 -22 -321 -1
-117 3 -216 10 -247 6 -29 9 -53 7 -53 -8 0 37 -78 54 -94 58 -52 213 -58 283
-11 79 52 84 81 83 440 -1 255 -1 262 -25 310 -17 32 -36 54 -59 66 -34 17
-140 28 -207 21z m120 -172 c11 -16 14 -68 12 -260 -2 -215 -4 -242 -20 -260
-25 -27 -51 -25 -72 6 -15 23 -17 56 -18 247 -1 221 4 258 38 279 21 13 45 9
60 -12z m-223 -240 c0 -5 -2 -10 -4 -10 -3 0 -8 5 -11 10 -3 6 -1 10 4 10 6 0
11 -4 11 -10z"/>
<path d="M75 2990 l-40 -5 -2 -60 c-1 -37 5 -73 14 -95 24 -52 26 -485 2 -538
-13 -30 -18 -96 -10 -144 1 -11 285 -9 339 1 102 20 147 134 119 299 -12 67
-29 97 -69 118 l-30 15 41 38 c23 21 41 42 42 47 0 5 3 20 5 34 17 100 7 188
-24 225 -45 53 -58 56 -317 69 -16 0 -48 -1 -70 -4z m217 -159 c15 -2 40 -65
41 -107 3 -64 -27 -89 -102 -85 -24 1 -24 1 -17 88 8 96 15 111 48 107 13 -1
26 -3 30 -3z m16 -338 c25 -22 36 -112 19 -150 -14 -32 -88 -68 -99 -50 -9 15
-11 201 -1 210 13 13 61 7 81 -10z"/>
<path d="M628 2992 c-38 -2 -68 -6 -69 -10 -6 -45 -2 -115 7 -148 14 -47 12
-497 -3 -554 -7 -28 -9 -91 -4 -131 1 -4 70 -7 154 -7 83 0 179 0 211 -1 39
-1 62 3 67 11 5 7 7 70 6 140 -2 142 1 137 -77 133 -68 -4 -70 -4 -68 -12 4
-16 -14 -89 -27 -109 -10 -16 -21 -20 -40 -17 -33 7 -49 36 -46 88 0 11 1 39
2 62 0 48 15 64 55 62 71 -4 70 -5 72 67 1 43 -1 63 -8 59 -6 -4 -16 -2 -23 4
-7 5 -19 6 -26 2 -7 -5 -25 -2 -42 6 l-29 14 4 82 c3 45 5 85 5 90 1 4 16 7
34 7 37 0 56 -23 61 -73 2 -15 6 -30 9 -33 3 -3 33 -7 67 -8 47 -2 63 1 69 13
5 9 8 70 7 136 l-1 120 -136 1 c-75 0 -142 3 -150 5 -8 2 -44 3 -81 1z"/>
<path d="M1052 2992 c-8 -2 -8 -331 0 -353 5 -12 35 -16 95 -10 7 1 10 25 9
78 -2 65 1 80 18 100 15 16 25 20 35 14 20 -13 18 -484 -2 -533 -7 -18 -12
-46 -10 -63 2 -16 3 -43 3 -58 l0 -28 100 2 c61 2 100 7 101 13 6 59 2 126 -8
147 -12 24 -14 63 -12 279 1 58 0 131 -2 163 -3 72 16 100 46 67 14 -16 18
-37 19 -100 1 -54 5 -81 14 -85 6 -2 12 1 12 6 0 7 9 9 23 5 46 -14 56 -14 59
-3 3 9 2 317 -1 349 -1 4 -45 7 -98 8 -54 0 -164 2 -246 3 -81 1 -150 1 -155
-1z"/>
<path d="M2158 2992 c-28 -2 -38 -8 -38 -20 -4 -145 -10 -192 -24 -220 -20
-39 -29 -40 -51 -5 -18 26 -25 65 -30 158 -1 28 -3 58 -4 67 -1 14 -14 17 -94
17 l-93 1 1 -63 c1 -35 8 -75 17 -92 9 -16 20 -46 26 -65 6 -19 31 -93 57
-165 51 -140 65 -248 41 -310 -6 -16 -11 -57 -11 -90 l0 -60 102 -2 102 -2 3
32 c2 18 -1 52 -6 77 -4 25 -10 84 -13 131 -4 74 -1 97 21 161 14 41 26 82 26
90 0 9 7 29 14 45 67 129 87 190 84 248 l-3 60 -33 2 c-18 1 -39 3 -45 5 -7 2
-29 2 -49 0z"/>
<path d="M2828 2938 c-1 -34 3 -78 9 -98 9 -24 13 -118 15 -290 1 -140 6 -268
11 -285 15 -47 56 -96 96 -113 20 -8 65 -16 101 -17 89 -2 148 28 181 93 21
42 24 62 26 177 1 72 2 150 2 175 0 25 0 54 -1 65 0 11 1 50 2 88 2 37 0 70
-3 73 -4 4 3 18 13 32 15 19 20 40 20 88 0 60 -1 63 -27 68 -16 3 -60 5 -100
5 l-72 -1 -3 -31 c-3 -32 4 -89 18 -157 15 -72 5 -483 -12 -500 -15 -15 -62
-22 -69 -10 -14 22 -18 61 -21 195 -2 77 -4 147 -4 155 -4 59 5 169 15 190 9
20 13 117 6 151 0 3 -46 7 -100 7 l-99 2 -4 -62z"/>
<path d="M3415 2992 c-2 -2 -17 -4 -33 -4 -30 -1 -30 -2 -34 -62 -2 -36 2 -70
10 -85 19 -36 23 -488 5 -539 -7 -21 -13 -63 -13 -94 l0 -58 48 -1 c26 -1 72
-2 102 -3 l55 -1 1 60 c0 33 -4 71 -9 85 -6 14 -11 60 -12 103 -2 74 -1 79 21
88 13 4 30 6 37 3 26 -9 40 -78 42 -199 1 -66 3 -125 4 -131 2 -17 181 -19
182 -2 3 45 -2 121 -9 136 -5 9 -10 50 -11 89 -3 96 -13 128 -52 160 l-32 27
24 21 c35 29 56 67 65 111 10 48 10 45 1 123 -12 110 -57 154 -168 166 -60 7
-219 12 -224 7z m204 -185 c21 -23 30 -94 17 -135 -11 -34 -78 -63 -93 -39 -4
6 -7 51 -8 100 -2 68 1 90 13 96 20 12 46 3 71 -22z"/>
<path d="M4208 2992 c-49 -1 -88 -6 -89 -10 -6 -39 -4 -121 4 -137 6 -12 11
-127 12 -275 2 -198 -1 -261 -11 -282 -8 -15 -14 -54 -14 -88 l0 -60 216 2
216 3 -2 150 c-4 255 -3 240 -25 241 -11 0 -30 -3 -41 -7 -12 -4 -25 -5 -28
-1 -11 10 -45 9 -49 -2 -2 -6 -3 -48 -2 -94 2 -67 -1 -87 -16 -106 -21 -26
-51 -37 -69 -26 -16 10 -23 441 -9 510 5 25 12 70 15 100 8 79 -1 86 -108 82z"/>
<path d="M4856 2988 c-9 -28 0 -126 12 -141 17 -20 20 -513 4 -544 -6 -10 -11
-43 -12 -73 -3 -97 -12 -88 101 -89 l101 -1 -6 98 c-9 151 -12 252 -5 249 3
-1 12 3 20 10 8 7 29 10 46 7 39 -6 47 6 48 74 0 37 -4 51 -12 48 -7 -3 -15
-1 -18 4 -3 5 -21 8 -41 6 -19 -1 -37 2 -41 6 -10 18 -13 159 -3 178 9 16 14
17 43 8 46 -15 52 -23 48 -68 -2 -37 -1 -39 26 -39 15 0 37 0 48 -2 62 -6 66
-3 66 59 0 31 0 88 0 126 0 38 -4 73 -8 77 -5 5 -47 9 -94 9 -247 -1 -300 0
-309 5 -6 4 -12 0 -14 -7z"/>
<path d="M5415 2992 c-95 -5 -91 -1 -82 -84 5 -40 11 -158 13 -263 5 -252 5
-244 -1 -290 -2 -22 -7 -79 -10 -127 l-6 -88 215 0 c143 0 217 4 221 11 6 9 6
123 1 243 -1 29 -2 29 -64 31 -68 1 -82 -9 -82 -57 0 -13 -9 -37 -20 -55 -18
-29 -22 -31 -48 -22 -32 11 -54 61 -42 95 4 11 6 33 5 49 -5 42 11 66 43 64
64 -5 82 0 81 24 0 12 2 38 5 58 4 34 2 37 -27 45 -18 4 -42 8 -53 9 -53 5
-56 17 -45 181 1 7 12 14 26 16 35 7 65 -22 71 -68 3 -21 6 -40 9 -42 8 -8
121 -7 133 1 8 7 12 47 12 138 l0 129 -42 1 c-24 0 -92 1 -153 2 -60 1 -132 1
-160 -1z"/>
<path d="M4597 2984 c-12 -12 -8 -120 6 -155 18 -44 16 -510 -1 -552 -7 -16
-12 -53 -12 -83 l0 -54 105 1 c90 1 105 3 106 17 6 63 3 111 -8 139 -22 54
-20 500 2 543 7 14 10 32 6 39 -5 7 -5 30 -1 52 5 25 3 42 -4 47 -14 11 -189
16 -199 6z"/>
<path d="M17 1972 c-14 -3 -17 -16 -17 -78 l0 -74 344 0 c263 0 346 -3 353
-12 5 -7 18 -35 28 -63 34 -94 136 -294 201 -391 35 -54 64 -99 64 -101 0 -1
6 -11 14 -20 8 -10 44 -54 79 -98 245 -305 577 -552 942 -702 60 -25 227 -82
255 -88 8 -2 15 -4 15 -5 0 -1 11 -4 24 -6 14 -2 50 -11 80 -18 73 -19 135
-29 261 -43 85 -10 449 -10 520 0 118 16 208 32 238 41 9 3 28 7 42 10 48 10
66 14 165 46 253 82 500 212 720 379 92 70 111 87 235 211 226 226 399 485
516 775 l32 80 329 5 330 5 0 73 c1 60 -2 72 -16 73 -54 2 -5741 3 -5754 1z
m998 -268 c137 -283 311 -511 555 -727 36 -31 71 -57 77 -57 7 0 13 -4 13 -10
0 -14 198 -142 309 -199 320 -165 620 -233 986 -226 94 2 188 6 210 10 22 3
54 8 70 10 17 2 75 13 130 25 297 65 564 192 830 393 103 79 282 258 367 367
110 142 231 346 291 493 15 35 18 37 62 37 57 0 58 4 -30 -175 -114 -230 -230
-391 -425 -585 -95 -95 -333 -290 -353 -290 -3 0 -26 -14 -51 -31 -103 -69
-428 -216 -518 -234 -9 -2 -50 -13 -90 -24 -116 -31 -161 -39 -353 -60 -68 -8
-366 -6 -415 3 -14 2 -49 7 -79 11 -61 8 -85 12 -109 19 -9 3 -28 7 -42 10
-78 13 -279 77 -385 121 -155 65 -451 240 -515 305 -3 3 -34 30 -70 59 -152
128 -328 332 -440 511 -49 78 -180 335 -180 353 0 4 22 7 49 7 l50 0 56 -116z
m184 37 c68 -138 195 -331 272 -413 13 -14 42 -45 65 -69 265 -284 648 -497
1014 -565 14 -2 34 -6 45 -8 99 -22 424 -29 555 -13 82 10 289 56 315 70 11 6
22 9 25 8 12 -5 163 57 264 107 102 51 286 167 331 209 11 10 34 29 50 41 168
130 373 389 490 620 43 84 49 92 76 92 16 0 29 -5 29 -12 0 -18 -118 -236
-170 -314 -106 -156 -266 -336 -388 -434 -24 -19 -54 -43 -65 -54 -85 -73
-338 -217 -473 -269 -74 -29 -213 -74 -248 -82 -12 -2 -32 -6 -46 -9 -165 -36
-218 -41 -415 -41 -206 0 -262 5 -406 35 -278 59 -544 180 -774 352 -104 78
-288 254 -342 325 -15 21 -36 47 -46 58 -61 68 -257 401 -257 438 0 4 13 7 30
7 27 0 33 -7 69 -79z m733 -91 c-6 -76 -1 -77 280 -76 130 1 240 5 244 9 5 4
9 31 10 60 1 29 2 54 3 57 0 3 14 6 30 5 28 0 28 -1 28 -50 -2 -86 -19 -81
251 -80 133 0 245 4 249 8 4 5 8 30 9 58 1 54 5 62 34 64 18 1 20 -5 20 -56 0
-46 4 -60 18 -67 13 -6 413 -9 495 -3 14 1 17 11 17 61 0 33 5 61 10 61 54 6
53 6 54 -55 1 -49 4 -60 21 -65 37 -13 463 -7 477 7 6 6 11 34 11 62 -1 27 2
50 5 51 4 0 17 2 30 5 20 4 22 0 22 -49 0 -74 8 -81 79 -81 34 0 61 -3 61 -6
0 -4 -6 -15 -14 -25 -12 -16 -29 -18 -188 -17 -96 0 -181 -4 -189 -8 -10 -7
-14 -37 -15 -120 -1 -61 3 -113 8 -116 5 -3 43 -6 84 -6 41 0 74 -1 74 -3 0
-1 -10 -13 -22 -26 -23 -24 -24 -24 -230 -23 -182 1 -208 -1 -212 -15 -4 -13
-2 -189 3 -213 0 -5 18 -8 39 -8 l37 -1 -40 -22 c-35 -18 -57 -21 -167 -23
-145 -1 -158 -7 -158 -65 0 -22 -3 -39 -7 -40 -5 0 -16 -2 -25 -4 -15 -3 -18
4 -18 39 0 23 -5 47 -12 54 -17 17 -489 17 -506 0 -7 -7 -12 -40 -12 -80 0
-66 -1 -68 -25 -66 -14 1 -26 5 -26 8 -1 3 -2 33 -3 68 -1 34 -7 67 -13 73
-17 17 -466 16 -498 -1 -22 -12 -31 -10 -78 10 -106 49 -105 49 92 48 100 0
185 3 189 6 7 7 11 203 5 222 -3 8 -82 10 -261 9 -141 -1 -261 -3 -265 -4 -5
0 -8 -22 -7 -48 3 -96 3 -96 -25 -77 -22 14 -25 23 -24 66 3 60 -4 66 -81 66
-48 0 -63 4 -85 24 l-26 25 240 0 c132 1 244 4 250 8 16 9 15 220 -1 233 -20
16 -497 10 -507 -6 -4 -7 -7 -55 -7 -107 1 -52 -1 -95 -3 -95 -2 0 -16 12 -30
28 -23 24 -26 35 -25 100 0 84 -6 92 -78 92 -43 0 -68 13 -68 35 0 7 63 10
190 10 105 0 199 3 210 7 17 6 20 17 20 62 0 55 8 67 40 59 11 -3 14 -16 12
-53z"/>
<path d="M2256 1515 c-12 -12 -15 -37 -13 -120 1 -57 6 -107 9 -111 4 -4 116
-7 248 -7 176 0 244 3 253 12 19 19 16 212 -3 228 -11 9 -80 12 -247 13 -195
0 -234 -2 -247 -15z"/>
<path d="M2843 1520 c-20 -8 -21 -15 -22 -119 l0 -111 27 -7 c14 -3 129 -6
255 -6 186 0 231 2 238 14 12 19 11 200 -1 219 -8 13 -47 15 -242 16 -128 1
-243 -2 -255 -6z"/>
<path d="M3416 1517 c-14 -10 -17 -30 -18 -116 0 -60 4 -107 10 -113 14 -14
489 -15 502 -2 5 5 10 56 11 114 1 89 -1 106 -17 117 -25 18 -462 19 -488 0z"/>
<path d="M2529 1196 c-3 -75 0 -198 4 -203 5 -4 407 -7 432 -2 6 0 19 0 31 0
11 -1 26 4 32 11 12 14 12 195 0 214 -5 7 -86 11 -253 11 l-245 0 -1 -31z"/>
<path d="M3102 1222 c-8 -2 -12 -36 -12 -112 0 -102 1 -109 21 -115 32 -10
489 -9 499 1 11 11 15 212 5 222 -7 7 -492 11 -513 4z"/>
</g>
</svg>
